# xmcd
#
# Track frame offsets: 
#        150
#        13853
#        34198
#        54698
#        76038
#        102575
#        141195
#        161810
#        191208
#        218605
#        255043
#        306208
#        326353
#
# Disc length: 4431 seconds
#
# Revision: 0
# Processed by: cddbd v1.5.2PL0 Copyright (c) Steve Scherf et al.
# Submitted via: ExactAudioCopy v0.99pb4
#
DISCID=ad114d0d
DTITLE=Stevie Ray Vaughan - Cold Shot (Vol. 2)
DYEAR=1987
DGENRE=Blues
TTITLE0=Testify (I Wanna)
TTITLE1=Say What!
TTITLE2=Lookin' Out The Window
TTITLE3=Look At Little Sister
TTITLE4=Mary Had A Little Lamb
TTITLE5=Texas Flood
TTITLE6=Superstition
TTITLE7=Willie The Wimp
TTITLE8=Cold Shot
TTITLE9=Couldn't Stand The Weather
TTITLE10=Life Without You
TTITLE11=Come On
TTITLE12=Love Struck Baby
EXTD=
EXTT0=
EXTT1=
EXTT2=
EXTT3=
EXTT4=
EXTT5=
EXTT6=
EXTT7=
EXTT8=
EXTT9=
EXTT10=
EXTT11=
EXTT12=
PLAYORDER=
